<?xml version="1.0" encoding="utf-8"?>
<!-- Generator: Adobe Illustrator 23.0.3, SVG Export Plug-In . SVG Version: 6.00 Build 0)  -->
<svg version="1.1" xmlns="http://www.w3.org/2000/svg" xmlns:xlink="http://www.w3.org/1999/xlink" x="0px" y="0px"
	 viewBox="0 0 595.28 841.89" style="enable-background:new 0 0 595.28 841.89;" xml:space="preserve">
<style type="text/css">
	.st0{fill:#F58C8E;}
	.st1{display:none;}
	.st2{display:inline;}
	.st3{fill:url(#SVGID_1_);}
	.st4{fill:#FFFFFF;}
	.st5{fill:none;stroke:#FFFFFF;stroke-width:40;stroke-miterlimit:10;}
</style>
<g id="Calque_2">
	<ellipse class="st0" cx="215" cy="437.25" rx="179" ry="213.5"/>
</g>
<g id="Calque_3">
</g>
<g id="Calque_4" class="st1">
	<g class="st2">
		<g>
			<path class="st0" d="M220,425.5c3.22,0,3.22-5,0-5C216.78,420.5,216.78,425.5,220,425.5L220,425.5z"/>
		</g>
	</g>
</g>
<g id="Calque_1">
	<linearGradient id="SVGID_1_" gradientUnits="userSpaceOnUse" x1="100" y1="437.25" x2="548.5" y2="437.25">
		<stop  offset="0" style="stop-color:#ED1C24"/>
		<stop  offset="1" style="stop-color:#F15A29"/>
	</linearGradient>
	<circle class="st3" cx="324.25" cy="437.25" r="224.25"/>
</g>
<g id="Calque_5" class="st1">
	<g class="st2">
		<g>
			<path class="st4" d="M438.41,379.88c-36.11-36.63-88.98-49.36-139-49.2c-25.09,0.08-52.31,2.17-74.43,15.14
				c-19.35,11.35-33.8,33.38-30.82,56.47c1.78,13.84,10.56,23.74,20.77,32.53c13.51,11.64,27.2,23.07,40.8,34.6
				c2.44,2.07,5.99-1.45,3.54-3.54c-11.3-9.58-22.6-19.17-33.91-28.75c-9.27-7.86-20.09-15.78-24.37-27.65
				c-7.86-21.77,5.55-45.88,23.8-57.67c20.9-13.52,47.26-15.77,71.52-16.11c23.65-0.33,47.46,2.13,70.24,8.63
				c25.63,7.31,49.53,20,68.34,39.07C437.14,385.71,440.67,382.18,438.41,379.88L438.41,379.88z"/>
		</g>
	</g>
	<g class="st2">
		<g>
			<path class="st4" d="M382.76,366.15c18.06,9.58,35.67,23.09,42.12,43.34c3.24,10.17,3.34,21.18-0.97,31.05
				c-4.05,9.26-10.94,17.39-18.29,24.23c-13.8,12.83-32.06,22.02-51.14,22.47c-18.76,0.44-35.16-8.53-49.01-20.46
				c-15.05-12.97-27.7-28.48-43.15-41.01c-2.48-2.01-6.04,1.51-3.54,3.54c29.13,23.63,52.95,63.44,94.95,62.96
				c20.17-0.23,39.48-9.58,54.28-22.91c15.79-14.22,27.49-33.1,23.28-55c-4.72-24.56-24.98-41.38-46-52.53
				C382.45,360.33,379.92,364.64,382.76,366.15L382.76,366.15z"/>
		</g>
	</g>
	<g class="st2">
		<g>
			<path class="st4" d="M403.76,396.38c-26.48-19.6-55.3-40.05-89.1-43.32c-14.13-1.37-29.76,1.36-39.07,13.03
				c-8.34,10.45-12.99,27.42-6.54,39.88c3.94,7.6,11.97,12.02,19.36,15.65c8.89,4.37,18.28,7.49,27.98,9.43
				c3.14,0.63,4.49-4.19,1.33-4.82c-7.37-1.48-14.57-3.58-21.49-6.51c-6.73-2.85-14.49-6.29-19.58-11.68
				c-10.22-10.83-5.07-30.24,3.98-40.2c9.91-10.9,26.3-11.29,39.82-8.99c14.22,2.42,27.68,7.89,40.28,14.81
				c14.25,7.83,27.45,17.38,40.5,27.04C403.83,402.62,406.32,398.28,403.76,396.38L403.76,396.38z"/>
		</g>
	</g>
	<g class="st2">
		<g>
			<path class="st4" d="M353.28,387.73c6.06,7.24,12.89,13.72,20.48,19.34c2.02,1.49,4.08,2.92,6.19,4.28
				c2.32,1.49,5.81,2.48,3.35,5.21c-3.16,3.5-9.83,4.63-14.27,5.17c-10.16,1.22-20.81,0.05-30.92-1.11
				c-11.67-1.34-23.2-3.61-34.56-6.59c-3.12-0.82-4.44,4-1.33,4.82c13.01,3.41,26.26,5.84,39.65,7.17
				c11.71,1.16,24.99,2.74,36.36-1.22c7-2.44,17.04-9.12,7.64-15.63c-10.78-7.47-20.58-14.83-29.06-24.97
				C354.75,381.73,351.23,385.28,353.28,387.73L353.28,387.73z"/>
		</g>
	</g>
	<g class="st2">
		<g>
			<path class="st4" d="M365.07,411.14c-8.17-6.35-16.34-12.7-24.51-19.04c-5.06-3.93-11.09-9.56-18.07-7.39
				c-8.89,2.77-18.18,25.7-5.13,28.11c3.15,0.58,4.49-4.24,1.33-4.82c-2.31-0.43-2.67-4.28-2.31-5.99c0.21-0.97,0.51-1.95,0.81-2.89
				c0.72-2.31,1.61-4.61,3.04-6.57c4.51-6.17,10.69-1.63,15.26,1.91c8.69,6.73,17.36,13.49,26.04,20.23
				C364.05,416.63,367.61,413.12,365.07,411.14L365.07,411.14z"/>
		</g>
	</g>
</g>
<g id="Calque_6">
	<path class="st5" d="M487.21,314.6c-150.26-75.5-202.22-69.32-219.33-44.9c-20.72,29.59,15.96,77-4.96,144.54
		c-25.63,82.75-105.67,92.2-101.48,126.7c4.96,40.88,125.69,96.54,195.02,28.56c39.92-39.14,53.81-110.44,35.48-179.58"/>
</g>
<g id="Calque_7">
	<g>
		<g>
			<path class="st4" d="M389,418.5c3.22,0,3.22-5,0-5C385.78,413.5,385.78,418.5,389,418.5L389,418.5z"/>
		</g>
	</g>
	<g>
		<g>
			<path class="st4" d="M391.85,409.6c10.46,0,20.48-9.2,20-20c-0.49-10.84-8.79-20-20-20c-10.46,0-20.48,9.2-20,20
				C372.33,400.43,380.64,409.6,391.85,409.6L391.85,409.6z"/>
		</g>
	</g>
	<g>
		<g>
			<path class="st4" d="M485.21,333.52c10.46,0,20.48-9.2,20-20c-0.49-10.84-8.79-20-20-20c-10.46,0-20.48,9.2-20,20
				C465.7,324.36,474,333.52,485.21,333.52L485.21,333.52z"/>
		</g>
	</g>
	<g>
		<g>
			<path class="st4" d="M326.33,347.31c13.08,0,25.6-11.5,25-25c-0.61-13.55-10.98-25-25-25c-13.08,0-25.6,11.5-25,25
				C301.93,335.86,312.31,347.31,326.33,347.31L326.33,347.31z"/>
		</g>
	</g>
</g>
</svg>
